<svg xmlns="http://www.w3.org/2000/svg" width="745.333" height="745.333" viewBox="0 0 559 559"><path d="M247.5 37.1c-3.6 1-7.5 4.9-10.4 10.4s-2.7 16.5.4 32.5c1.4 6.9 2.5 12.7 2.5 13s-36 .4-80 .2c-44-.1-80-.1-80 0 0 .2 15.5 36.3 34.3 80.3 21.8 50.6 34 80.2 33.3 80.6-.6.4-26.6 8.2-57.8 17.5s-56.6 17-56.4 17.1c.5.5 137.7-22.5 138.3-23.1.3-.3-2.6-8.1-6.5-17.3s-17-40.7-29.2-69.8c-12.2-29.2-23.1-55-24.1-57.4s-1.9-4.7-1.9-5.2 30.5-.9 69.3-.9c68.1 0 69.2 0 70.5 2 1 1.7 1 2-.2 2-.8 0-2.7.5-4.2 1l-2.7 1.1 2.4 2.6 2.4 2.6-3.5-.7c-13.1-2.4-14.8-1.9-19.1 5.1-1.8 2.8-2.5 3.4-2.7 2-.2-.9-.7-1.7-1.1-1.7-2.3 0-10.1 15.3-10.1 19.8 0 1-1.6 3.4-3.6 5.3-4.2 4-8.6 12.2-12.4 23.4-1.6 4.4-4 11.1-5.5 15-4.4 11.6-2.4 21.9 5.3 27 6.5 4.3 12.4 4.9 24.3 2.5 5.7-1.2 10.7-2.4 11-2.8.7-.7-15.4-29.7-18.8-34-1-1.3-3.4-2.7-5.3-3.2l-3.5-.8 3.3-.1c1.8-.1 4.6.6 6.1 1.4 2.8 1.4 2.9 1.4 7.8-3.8 4.7-5 5-5.6 5.6-12.2.7-6.8 3-17.1 4.1-18.3 1.3-1.3 1.5.8.6 5.8-.5 2.9-1 8.8-1 13.1 0 6.7.3 8.2 2.3 10.5 2.7 3.1 6.4 3.5 10.2 1 2.3-1.5 2.5-2.3 2.5-8.4 0-7 2.5-17.6 3.9-16.8.4.3.3 3.1-.3 6.3-1.2 7-1.4 14.8-.3 16 .5.4 3.8-2.5 7.5-6.5 6.6-7.1 11.3-9.9 14.8-8.5 2.5 1 1.5 1.9-3.7 3.2-5.1 1.3-7.6 3.7-12 11.8-1.2 2.2-3.5 3.7-9.6 6.1-9.4 3.8-10.2 3.8-13.6 1.2-4.4-3.5-10.9-2.5-13.2 1.9-1.3 2.6-1 3.2 7.3 16.2 4.8 7.4 9.7 14.9 11 16.7 2.5 3.4 6.2 4.3 6.2 1.6 0-1.2.5-1.4 1.8-.8.9.5 3.5.8 5.8.8 4.6.1 8.5-2.5 24.7-16.2 9.4-7.9 12.7-12.1 15.2-19 .8-2.4 3.8-6.9 6.5-9.9 2.8-3.1 6-7.2 7.1-9.2 1.5-2.8 1.9-3 1.5-1.1-.3 1.4-.6 3.2-.6 4.1s-1.8 3.8-4 6.5c-2.1 2.7-5.6 7.7-7.7 11.1-8 13.2-11.7 17.3-23.5 26.4-6.4 4.9-12.4 9.9-13.3 11.1-.8 1.3-1.5 4.1-1.5 6.4 0 3.9-2.6 12.8-5 17.4-2.2 4-2.2 1.2-.2-5.7 2.4-7.8 3.1-15.8 1.5-17.4-.8-.8-2.1-.8-4.8.1-4.5 1.5-9.2.7-12.2-2.2-1.3-1.2-2.5-2-2.7-1.7-.1.2-2.4 6-5 12.9-3.6 9.4-4.9 14.3-5.3 20-.4 5.4-1.2 8.7-3 11.8-1.4 2.4-2.2 5-1.9 5.7.3.8 2.9 2.8 5.8 4.5 10 5.8 18.8 3.5 43-11.3l11.7-7.2.1-5.2v-5.2l-5 2.5c-2.8 1.4-7.4 3.3-10.3 4.4-2.8 1-6 2.1-6.9 2.5-1 .4-1.8.3-1.8-.3 0-2.1 3.1-4.1 9.7-6.2 3.8-1.2 7.3-2.9 8-3.7.6-.8 1.4-5 1.8-9.4.6-7 1.1-8.6 4.1-12.5 1.9-2.4 5.7-8.5 8.5-13.4 4.5-7.8 7-10.8 6.9-8.3 0 .5-2.8 6-6.1 12.3-9.8 18.3-10 19-10.6 24.9l-.5 5.6 2.5-3c1.3-1.6 3.2-5.2 4.2-8 1-2.7 4.2-9.5 7.3-15 15.9-28.7 16.2-29.1 16.2-26.3 0 1.5 1.8 7.8 4 14 6.1 17.7 9 28.6 9 34.3 0 2.9.4 5.5.9 5.7 1.3.5 8.4 11.9 7.7 12.5-.2.3-2.2-2.2-4.3-5.6s-4-6.1-4.3-6.1-2.1 4.1-4.1 9l-3.6 9 17.2 5.5c18.1 5.8 21.3 6.2 32.4 4.4l6.8-1.1.7-10.6c.3-5.8.6-13.6.6-17.5v-6.9l10.5.7c7.5.5 11 .4 11.9-.5 2.1-1.6 3.1-14.6 1.7-21.1-.7-3-3.2-9.7-5.6-14.9s-6-15.1-8-21.9c-4.7-16.1-7-19.1-18.5-23.6-4.5-1.8-6-2-6-1 0 2.6 6.5 9.9 12.9 14.4 9.4 6.7 11.3 10.8 10.9 23.1-.2 5.2.1 11.2.6 13.3l.8 3.8-3.7-2.5c-4.4-3-7.1-3.2-17.8-1.1-10.4 2-13.3 1.9-15.6-.4-1.1-1.1-2.5-3.9-3.1-6.3s-3.3-10.1-6.1-17.1c-2.8-7.1-4.8-13.1-4.5-13.4s.8.3 1.2 1.3c3.2 9.3 6.4 13.3 6.4 8.1 0-6.8-6.5-21.2-14.1-31.5-3-3.9-4.6-5.2-6.5-5.2-2.5 0-2.6.2-2 3.7.3 2.1.9 7.9 1.2 13 .8 10.9-.4 16.8-4.8 23.3l-3.1 4.5 1.7 5c3.2 9.1 14.3 30.9 18.5 36.2 3.3 4.2 5.1 5.5 9 6.7 8.2 2.4 15.3-.3 27-10.4 6.3-5.5 11-8 14.8-8 .7 0 1.3.4 1.3 1 0 .5-1.5 1-3.3 1-2.5 0-4.8 1.3-10.1 5.7l-6.8 5.6 2.5 1.3c3.4 1.8 3.6 2.9 2.7 11.3-1.1 10.2-2.2 10.2-1.4 0 .6-8.3.6-8.5-1.8-10.1s-2.8-1.5-9.3 1.8c-3.7 1.9-7.9 3.4-9.3 3.4h-2.5l.7 7.6c.5 5.2.4 7.4-.4 6.9-.5-.3-1-3-1-5.8 0-7.6-.7-9.4-4.1-10.1-5.5-1.1-11.5-8.8-19.4-25-4.1-8.3-8.1-17.4-9.1-20.3-2-5.6-2-5.5 3.7-14.8 4-6.5 4.6-12.6 2.4-25.2-1.3-7.7-2.3-10.6-4.6-13.5-1.6-2-2.9-4.9-2.9-6.3 0-3.6-3-7.6-10.2-13.5l-5.9-5H303l-.6 4c-.5 3.3-.3 4.1 1.2 4.7 1.3.5 2.8-.5 6-4 3.5-3.9 4.8-4.7 7.7-4.7 3.3 0 3.6.3 5.7 6 2.7 7.3 2.4 14.2-.9 18.9l-2.3 3.2 2.8 3.7c18.8 25.1 28.9 32.9 35.8 27.9 1.5-1.1 1.1-2.1-4.8-10.9-6.7-10.1-8.6-14.6-8.6-21.1 0-2-.5-3.7-1-3.7-.6 0 .7-1.6 2.9-3.5 2.1-1.9 4.4-5 5.1-6.8.6-1.7 2.2-5.6 3.6-8.5l2.4-5.2h102l-.9 2.2c-.5 1.3-14.2 34.2-30.5 73.3-22.2 53-30.3 71.5-32.2 73l-2.5 2 70.3 11.7c38.7 6.5 70.7 11.6 71.1 11.5.8-.2-9.6-3.4-78.8-23.9-18.7-5.5-34.4-10.4-34.8-10.8s14.3-35.8 32.7-78.7c18.4-43 33.7-79.1 34.1-80.2l.6-2.1H360.3l-.8-7.2c-.3-4-1.3-8.4-2-9.8-1.7-3.1-6.9-8-11.7-10.9-2-1.2-5.3-4.4-7.3-7.2-5.1-7.1-8.7-9.1-15.5-8.6-8.1.5-12.9 3.1-15.2 8.4-3.2 7.2-5 18-4.6 27l.4 8.3h-14.8C274 93 274 93 274 90.7c0-1.3-.5-2.8-1.1-3.4-.8-.8-.5-1.3.9-1.7 1.6-.5 2.2-1.9 2.7-5.9.4-2.9.5-7.2.3-9.7-.3-4-.6-4.5-2.7-4.4-2.3.1-2.3 0-1.6-7.2.7-7.9.1-9.9-4.3-14.7-2.2-2.3-3.1-2.6-6-2.1-3.1.6-3.4.5-2.8-1.4.6-1.7.2-2.2-1.8-2.7-5.8-1.2-7.2-1.2-10.1-.4M330 66.3c0 .2-.9 1.2-2 2.2-2.4 2.1-2.7 1.4-.4-.9 1.5-1.5 2.4-2 2.4-1.3m-8.5 14.2c-.8 2.2-1.4 6-1.5 8.5 0 2.5-.5 5.2-1.1 6-1.6 2.4-.1-10.8 1.8-15.3 2.1-4.8 2.6-4.3.8.8m34 5.3c-1 4.7-5.6 8.5-13.1 11-8.4 2.7-13.2 5.5-14.4 8.5-.5 1.2-.9 1.6-.9.9-.1-2.3 2.7-6.7 5.1-8 1.2-.7 5-2.1 8.2-3.2 7.2-2.4 11.9-5.9 13.6-10 1.5-3.7 2.4-3.3 1.5.8m-78.4 16.7c.5-.4.9-.2.9.3s1.1 2.6 2.5 4.6c1.3 2 2.1 3.6 1.6 3.6-.4 0-1.6-1.6-2.7-3.5-1.7-3.2-2-3.4-3.1-1.8-1.1 1.4-1.3.9-1.2-3.3.1-2.9.4-3.8.6-2.1.2 1.5.9 2.5 1.4 2.2m42.5-1.9c-.3.9-.6 3-.6 4.8q0 3.3-1.5 3.3t-1.5-3.3c0-4.3.9-6.4 2.7-6.4 1 0 1.3.6.9 1.6m-75.6 5.9c0 .5-.5.3-1-.5s-1-2-1-2.5c0-.6.5-.3 1 .5s1 1.9 1 2.5m1.8 4c-.3.3-.9-.2-1.2-1.2-.6-1.4-.5-1.5.5-.6.7.7 1 1.5.7 1.8m9.9 9.1c-.3.3-1.2.4-1.9.1-.8-.3-.5-.6.6-.6 1.1-.1 1.7.2 1.3.5m-22 123.4c.9 2.3 1.8 3 3.7 3 1.4 0 2.6.4 2.6 1 0 1-2.6 1.4-6.1 1.1-1.7-.2-4.4 5.4-3.4 7 .3.4 2.6 1.1 5 1.5 5.8.8 4.8 2.4-1.5 2.4-2.7 0-5.2.4-5.5 1-.9 1.5-2.5 1.2-2.5-.5 0-.8-.9-2.4-2-3.5-2.8-2.8-2.5-4.2.6-2.8 2.1 1 2.7.9 3.5-.3 1.5-2.3 1-5.5-1.1-7.4-2.7-2.5-2.5-3.8.6-3.2 1.6.3 2.8 0 3.1-.9.8-2.2 1.8-1.7 3 1.6m118.5 2.9c-.3 2.2 0 3 1.5 3.4 1 .3-.7.5-3.7.4-3 0-4.3-.2-2.7-.4 3.5-.6 3.9-4.9.5-5.6-1.5-.3-1.1-.5 1.3-.6 3.4-.1 3.5 0 3.1 2.8m2.3 11.1c-.3.5-1.8 1-3.3.9l-2.7-.1 2.5-.8c3.5-1.1 4.2-1.1 3.5 0"/><path d="M263 269.5c-25.1 14.7-36.6 16.4-46.7 7.2-1.3-1.1-2.5-1.8-2.8-1.5-1 1-2.2 10.8-1.7 13.5l.5 2.6 24.6-.6c13.5-.4 28.5-.7 33.4-.7h8.7v-14.5c0-8-.3-14.5-.7-14.5-.5 0-7.3 3.9-15.3 8.5m42.5 2.3c-2.2 3.4-8 19.1-7.3 19.7s69.6-1.2 70.6-1.9c1.5-.9 1.5-4.4.1-8.7-.7-1.9-1.3-3.5-1.4-3.7-.1-.1-4.6.5-10 1.3-5.4.9-11.2 1.3-12.9 1-2.6-.6-13.9-4.1-32.4-10l-4.2-1.4zM41 297.3c0 .8.7 1.7 1.5 2.1 1.3.4 1.5 3.5 1.5 18.5s-.2 18-1.5 18.5c-.8.3-1.5 1-1.5 1.6s3.6 1 9.5 1c9.4 0 10.9-.6 8-3-1-.8-1.5-3.1-1.5-6.6V324h4.8c16.6 0 22.8-17.4 9.1-25.5-2.8-1.7-5.6-2.1-16.6-2.3-11.3-.3-13.3-.2-13.3 1.1m21.1 1.7c1.7 1 1.9 2.2 1.9 10.8 0 10.4-.7 12.2-4.7 12.2-2.3 0-2.3-.1-2.3-12 0-12.8.3-13.5 5.1-11m20.6-2.3c-1.2 1.1-.8 2.3.8 2.3 1.3 0 1.5 2.7 1.5 18.5 0 11.7-.4 18.5-1 18.5-.5 0-1 .7-1 1.5 0 1.2 1.6 1.5 8.5 1.5 6.7 0 8.5-.3 8.5-1.4 0-.8-.4-1.8-1-2.1-.5-.3-1-4-1-8.1v-7.5l3.3.3 3.2.3.6 7.5c.8 10.8.9 11 8.6 11 5.8 0 6.4-.2 5.8-1.8-.5-.9-1.1-4.2-1.4-7.2-.8-6.8-1.4-7.8-5.9-9.7l-3.6-1.5 2.9-1.5c5.5-2.8 7.5-5.3 7.5-9.6 0-4.8-3.8-9-9.6-10.6-4.2-1.2-25.6-1.5-26.7-.4m21.1 2.5c.7.7 1.2 4.3 1.2 9 0 6.8-.2 7.9-2.1 8.8-4.1 2.2-4.9.7-4.9-8.8 0-4.9.3-9.2.7-9.5 1-1.1 3.8-.8 5.1.5M123 297c0 .5.9 1.4 2 2 1.9 1 2 2.1 2 18.5s-.1 17.6-2 18.7c-1.1.7-2 1.6-2 2 0 1 26.7 1 27.4 0 .2-.4.7-2.4 1.1-4.5.6-3.3.5-3.7-1.3-3.7-1.3 0-2.6 1.2-3.6 3.5-1.3 2.6-2.3 3.5-4.1 3.5-2.5 0-2.5-.1-2.5-10 0-9.3.1-10 2-10 1.1 0 2.5.9 3.2 2s2.1 2 3 2c1.5 0 1.8-.9 1.8-5 0-4.3-.3-5-1.9-5-1.1 0-2.3.9-2.6 2-.4 1.3-1.5 2-3.1 2-2.4 0-2.4-.2-2.4-8.5 0-4.7.4-8.5.9-8.5 2.3 0 4.3 1.5 5.7 4.1.8 1.6 2.3 2.9 3.3 2.9 1.6 0 1.7-.4.8-4.5l-1-4.5h-13.4c-7.9 0-13.3.4-13.3 1m33 .4c0 .7.7 1.9 1.5 2.6 1.2 1 1.5 4.3 1.5 18s-.3 17-1.5 18c-2.6 2.2-1.6 3 3.5 3s6.1-.8 3.5-3c-1.2-1-1.5-3.8-1.5-12.8 0-7.3.4-11.2.9-10.7.6.6 2.3 4.4 3.8 8.5 3.9 10.2 5.6 10.1 9.5-.5 1.6-4.4 3.3-8.4 3.9-9 .5-.5.9 3.6.9 11.2 0 9.5-.3 12.3-1.5 13.3-2.9 2.4-1.4 3 7.5 3s10.4-.6 7.5-3c-1.2-1-1.5-4.4-1.5-18.7 0-14.5.2-17.5 1.5-17.9.8-.4 1.5-1.3 1.5-2.1 0-1.1-1.5-1.3-7.1-1.1l-7.2.3-3 8.3c-1.6 4.6-3.3 7.9-3.8 7.5-.4-.4-1.4-2.8-2.2-5.3-4.2-12.1-3-11-10.8-11-5.2 0-6.9.3-6.9 1.4m44-.1c0 .7.9 1.8 2 2.5 1.9 1.1 2 2.3 2 18.2s-.1 17.1-2 18.2c-1.1.7-2 1.6-2 2 0 .5 4.3.8 9.5.8 9.4 0 10.9-.6 8-3-1.2-1-1.5-4.4-1.5-18.6 0-16.3.1-17.4 2-18.4 4.1-2.2 1.9-3-8-3-7.4 0-10 .3-10 1.3m22 .1c0 .8.7 1.6 1.5 2 1.3.4 1.5 3.3 1.5 17.1v16.7l2.9 2.9c2.7 2.6 3.5 2.9 9.9 2.9 5.9 0 7.3-.3 9.6-2.5l2.6-2.4V317c0-14.2.2-17.2 1.5-17.6.8-.4 1.5-1.2 1.5-2 0-1-1.4-1.4-5-1.4-5.1 0-6.1.8-3.5 3 1.2 1 1.5 4.3 1.5 17.5 0 17.5-.4 19-5.2 18.3-2.3-.3-2.3-.4-2.6-17.2-.1-10.6.1-17.3.8-18 2.8-2.8 1-3.6-8-3.6-7 0-9 .3-9 1.4m35 0c0 .8.5 1.8 1 2.1.6.4 1 7.7 1 18.5s-.4 18.1-1 18.5c-2.3 1.4-.7 2.5 4 2.5 5 0 6.4-1.1 3.5-2.8-1.3-.7-1.5-2.9-1.3-12.8l.3-11.9 3.4 8.7c4.5 11.6 5.6 11.6 10.1-.5l3.5-9.2.3 12.5c.2 7.9-.1 12.6-.8 12.8-.5.2-1 1-1 1.8 0 1.1 1.8 1.4 8.5 1.4 6.9 0 8.5-.3 8.5-1.5 0-.8-.4-1.5-1-1.5s-1-6.7-1-18c0-15.1.2-18.2 1.5-18.6.8-.4 1.5-1.2 1.5-2 0-1.1-1.7-1.4-7.3-1.4h-7.3l-2.9 8.1c-1.6 4.4-3.3 8.3-3.6 8.5-.4.2-1.7-2.7-2.9-6.4-3.5-10.5-3.2-10.2-10.5-10.2-5 0-6.5.3-6.5 1.4m62 0c0 .8.7 1.6 1.5 2 1.3.4 1.5 3.5 1.5 18.5s-.2 18-1.5 18.5c-.8.3-1.5 1-1.5 1.6s3.8 1 10 1c9.9 0 12.1-.8 8-3-1.8-.9-2-2.1-2-10v-9h2.6c1.7 0 2.8.6 3.1 2 .3 1.1 1.4 2 2.4 2 1.6 0 1.9-.8 1.9-5s-.3-5-1.9-5c-1 0-2.1.9-2.4 2-.3 1.4-1.4 2-3.1 2-2.6 0-2.6-.1-2.6-7.9 0-4.4.5-8.3 1-8.6 1.8-1.1 4.4.4 6.2 3.5.9 1.6 2.4 3 3.3 3 1.3 0 1.5-.7.9-3.8-.4-2-.9-4-1.1-4.5-.2-.4-6.2-.7-13.4-.7-10.4 0-12.9.3-12.9 1.4m32 0c0 .8.7 1.6 1.5 2 1.3.4 1.5 3.4 1.5 17.8 0 16.3-.1 17.3-2.2 19.5l-2.1 2.3h10.1c6.3 0 10.2-.4 10.2-1s-.7-1.3-1.5-1.6c-1.3-.5-1.5-3.6-1.5-19 0-15.7.2-18.4 1.5-18.4.8 0 1.5-.7 1.5-1.5 0-1.2-1.7-1.5-9.5-1.5-7.5 0-9.5.3-9.5 1.4m23-.2c0 .7-.3 3-.6 5-.6 3.3-.4 3.8 1.3 3.8 1.4 0 2.3-1.1 3.2-4s1.7-4 3.1-4c1.9 0 2 .8 2 18.4 0 15.1-.3 18.6-1.5 19.6-2.9 2.4-1.4 3 8 3 5.2 0 9.5-.3 9.5-.6s-.8-1.6-1.7-2.8c-1.6-1.9-1.8-4.6-1.8-19.7 0-14.6.3-17.4 1.5-17.4.8 0 2.3 1.7 3.3 3.7 2.2 4.9 4.7 5 4.7.4 0-6.7.3-6.6-16.1-6.6-11.2 0-14.9.3-14.9 1.2m35 .2c0 .8.7 1.6 1.5 2 1.3.4 1.5 3.5 1.5 18.5s-.2 18-1.5 18.5c-3.3 1.2-1.2 2.6 4 2.6 5.9 0 6.4-.4 4-3-1.2-1.4-1.5-3.8-1.3-11.6l.3-9.9 3.6 5.5c1.9 3 5.2 8.5 7.3 12.2 3.3 6 4.1 6.8 6.7 6.8h2.9v-19.9c0-16.8.2-20 1.5-20.5 3.3-1.2 1.2-2.6-4-2.6-4 0-5.5.4-5.5 1.4 0 .8.7 1.6 1.5 2 1.2.4 1.5 2.4 1.5 9.3-.1 8.5-.1 8.7-1.8 6.6-.9-1.2-3.9-6.1-6.7-10.8l-4.9-8.5h-5.3c-3.9 0-5.3.4-5.3 1.4m35 0c0 .8.7 1.6 1.5 2 1.3.4 1.5 3.4 1.5 17.9 0 14.3-.3 17.7-1.5 18.7-.8.7-1.5 1.6-1.5 2.1s6 .9 13.3.9h13.2l1.1-4.5c1-4.3.9-4.5-1.1-4.5-1.4 0-2.7 1.1-3.8 3.5-1.3 2.6-2.3 3.5-4.2 3.5H460v-20h2.6c1.7 0 2.8.6 3.1 2 .3 1.1 1.4 2 2.4 2 1.6 0 1.9-.8 1.9-5s-.3-5-1.9-5c-1 0-2.1.9-2.4 2-.3 1.4-1.4 2-3.1 2-2.6 0-2.6 0-2.6-8.5 0-9.9 1.1-10.8 6.3-5 3.3 3.8 6.2 4.7 5.3 1.7-.3-.9-.8-2.9-1.2-4.5l-.6-2.7h-12.9c-10.4 0-12.9.3-12.9 1.4m35 .9c-5.6 5.9-3.6 12.6 7.6 26.2 5.1 6.2 6.6 8.9 5.8 10.9-1.4 3.7-7 1-9.8-4.7-.6-1.2-2.2-2.3-3.4-2.5-2.6-.4-2.5-.7-1.1 5.6l1 4.9 8.1.2c7.6.1 8.4-.1 11-2.6 2.3-2.2 2.8-3.5 2.8-7.4 0-5 .3-4.5-12.4-22.3-4-5.7-4.2-8.6-.6-8.6 1.2 0 3 1.5 4.6 4 1.8 2.7 3.4 4 4.9 4 2.1 0 2.2-.2 1.3-4.8l-1-4.8-8.4-.2c-7.5-.1-8.6.1-10.4 2.1m28.4.4c-4.8 5.2-2.7 13 6.4 24 7.5 9.1 8.7 11 7.2 12.8-2.5 3.1-6.8.8-9.9-5.3-.6-1.2-2.1-2.2-3.2-2.2-1.8 0-2 .4-1.3 4.7.3 2.7.8 5.1 1 5.4s3.9.7 8.3.7c7.1.2 8.3-.1 10.8-2.2 2.4-2.1 2.8-3.1 2.7-7.8 0-5-1.3-8.1-5.1-12.8-5.6-6.7-10.3-13.9-10.3-15.8 0-3.5 3.4-2.7 7.3 1.8 4 4.8 8.3 5.7 6.7 1.4-.6-1.4-1-3.5-1-4.7 0-2.1-.4-2.3-8.6-2.5-8.1-.1-8.7 0-11 2.5m-352.9 47.9c-63.3 1.8-61.8 1.8-62.2 3-.3.8 4.9 1.3 16.4 1.8 13.1.5 94.4 3.5 97.5 3.6.4 0 1 .9 1.3 2s4.7 10.4 9.7 20.7c4.9 10.4 16.8 35 26.3 54.8s21.6 45 27 56c5.3 11 10.6 22.2 11.7 24.8 1.2 2.6 2.4 4.4 2.8 4s13.2-26.9 28.5-58.8 31.8-66.3 36.8-76.5c4.9-10.2 9.7-20.4 10.7-22.7l1.8-4.1 8.4-.6c8.8-.6 94.3-3.6 101.6-3.6 3.1 0 4.2-.4 4.2-1.5 0-1.2-1.4-1.5-6.7-1.5-3.8 0-29.3-.7-56.8-1.5s-53-1.5-56.7-1.5h-6.7l-1.2 4.2c-1.1 4.2-62.2 135.5-63.8 137.1-.4.4-2.3-2.5-4.1-6.5-1.9-4-6.4-13.6-10-21.3-24.6-51.5-49.9-106.6-50.4-109.8l-.7-3.7-10.2.1c-5.6.1-30.4.8-55.2 1.5"/></svg>