<svg xmlns="http://www.w3.org/2000/svg" width="745.333" height="745.333" viewBox="0 0 559 559"><path d="M242.8 39.9c-1.9 1.6-4.4 4.9-5.6 7.4-3 6-2.9 16.5.3 32.7 1.4 6.9 2.5 12.7 2.5 13s-36 .4-80 .2c-44-.1-80-.1-80 0 0 .2 15.5 36.3 34.3 80.3 21.8 50.8 34 80.2 33.3 80.6-.6.4-26.6 8.2-57.8 17.5s-56.6 17-56.4 17.1c.5.5 137.7-22.5 138.3-23.1.5-.4-15.4-38.6-56.9-137.6-2.6-6.3-4.8-11.8-4.8-12.2 0-.5 31.2-.8 69.3-.8 68.1 0 69.2 0 70.5 2 1 1.7 1 2-.2 2-.8 0-2.7.5-4.2 1l-2.7 1.1 2.4 2.6 2.4 2.6-3.5-.7c-13.1-2.4-14.8-1.9-19.1 5.1-1.8 2.8-2.5 3.4-2.7 2-.2-.9-.7-1.7-1.1-1.7-2.3 0-10.1 15.2-10.1 19.6 0 .9-1.8 3.6-3.9 6-4.7 5-9.2 13.6-11.7 22-.9 3.2-2.7 8.1-3.9 10.9-3.9 8.6-4.8 12.5-4.2 18.2 1 9.6 6.3 15.2 16.4 17.3 4.1.9 6.8.7 15.4-1 5.7-1.2 10.7-2.4 11.1-2.8s-1.6-4.5-4.3-9.1-6.8-11.8-9-16c-4.9-9.1-6.6-11.1-11-12.1l-3.4-.8 3.3-.1c1.8-.1 4.6.6 6.1 1.4 2.8 1.4 2.9 1.4 7.8-3.8 4.7-5 5-5.6 5.6-12.2.7-6.8 3-17.1 4.1-18.3 1.3-1.3 1.5.8.6 5.8-.5 2.9-1 8.8-1 13.1 0 6.7.3 8.2 2.3 10.5 2.7 3.1 6.4 3.5 10.2 1 2.3-1.5 2.5-2.3 2.5-8.4 0-7.1 2.5-17.6 3.9-16.7.5.2.2 3.9-.6 8.2-1.4 7.4-1.1 14.3.6 14.3.4 0 3.6-3.1 7-7 6.1-6.8 11.1-9.7 14.7-8.3 2.5 1 1.5 1.9-3.7 3.2-5.1 1.3-7.6 3.7-12 11.8-1.2 2.2-3.5 3.7-9.5 6.1-9.3 3.8-10.3 3.8-13.7 1.2-4.4-3.5-10.9-2.5-13.2 1.9-1.3 2.6-1 3.2 7.3 16.2 4.8 7.4 9.7 14.9 11 16.7 2.5 3.4 6.2 4.3 6.2 1.6 0-1.2.5-1.4 1.8-.8.9.5 3.5.8 5.8.8 4.6.1 8.5-2.5 24.7-16.2 9.4-7.9 12.7-12.1 15.2-19 .8-2.4 3.8-6.9 6.5-9.9 2.8-3.1 6-7.2 7.1-9.2 1.5-2.8 1.9-3 1.5-1.1-.3 1.4-.6 3.2-.6 4.1s-2.1 4.3-4.7 7.6c-2.7 3.4-6.2 8.5-8 11.5-6.7 11.4-11.6 16.9-22.5 25-13.1 9.7-14.8 11.7-14.8 17.3 0 2.3-.9 6.7-1.9 9.7-4.1 12-6.6 13.2-3.1 1.6 1.3-4.5 2-9.2 1.8-12.3-.3-5.5 0-5.3-8.3-4-3.3.6-4.7.2-7.9-2-2.1-1.4-3.9-2.5-4-2.3s-2.4 5.9-5 12.7c-3.7 9.5-4.9 14.2-5.3 20-.4 5.5-1.2 8.8-3 11.9-1.4 2.4-2.2 5-1.9 5.7.3.8 2.9 2.8 5.8 4.5 10 5.8 18.8 3.5 43-11.3l11.7-7.2.1-5.4v-5.3l-2.6 1.7c-2.8 1.8-20.6 8.7-21.1 8.1-.2-.2-.1-1 .2-1.8.7-1.7 5.5-4 12.3-5.9 2.4-.7 4.7-2 5.2-2.8.4-.9 1.1-5.1 1.5-9.4.7-7.1 1.1-8.4 5-13.5 2.3-3.1 6.1-9.2 8.4-13.5 2.3-4.2 4.7-7.7 5.2-7.7 1.5 0 1.1 1.1-5.3 13-3.3 6.3-6.9 13.2-8 15.2s-2.2 6.3-2.4 9.5l-.5 5.8 2.3-3c1.3-1.6 3.7-6.3 5.4-10.5 1.7-4.1 7.2-14.7 12.2-23.4 5.1-8.8 9.5-17.6 9.8-19.5.3-2 1.6-5.2 2.8-7.1 1.3-1.9 3.1-4.8 4-6.3 2.7-4.4 3.1-12.4 1.1-23.4-1.3-7.7-2.3-10.6-4.6-13.5-1.6-2-2.9-4.9-2.9-6.3 0-3.6-3-7.6-10.2-13.5l-5.9-5H303l-.6 4c-.5 3.3-.3 4.1 1.2 4.7 1.3.5 2.8-.5 6-4 3.5-3.9 4.8-4.7 7.7-4.7 3.3 0 3.6.3 5.7 6 2.7 7.3 2.4 14.2-.9 18.9l-2.3 3.2 7.4 9.6c14.9 19.7 24.8 26.7 31.2 22 1.5-1.1 1.1-2.1-4.8-10.9-6.7-10.1-8.6-14.6-8.6-21.1 0-2-.5-3.7-1-3.7-.6 0 1-1.9 3.4-4.3 2.4-2.3 4.8-5.6 5.2-7.2.4-1.7 1.8-5.1 3.1-7.8l2.3-4.7h102l-.9 2.2c-.5 1.3-14.2 34.2-30.5 73.3-22.2 53-30.3 71.5-32.2 73l-2.5 2 70.3 11.7c38.7 6.5 70.7 11.6 71.1 11.5.5-.1-9.2-3.2-21.5-6.9-12.3-3.6-37.8-11.2-56.8-16.8s-34.9-10.6-35.3-11 14.4-36 32.9-79.1 33.8-79.2 34.1-80.2c.5-1.6-3-1.7-64-1.7h-64.4l-.8-7.2c-.3-4-1.3-8.4-2-9.8-1.7-3.1-6.9-8-11.7-10.9-2-1.2-5.3-4.4-7.3-7.2-5.1-7.1-8.7-9.1-15.5-8.6-8.1.5-12.9 3.1-15.2 8.4-3.2 7.2-5 18-4.6 27l.4 8.3h-14.8C274 93 274 93 274 90.7c0-1.3-.5-2.8-1.1-3.4-.8-.8-.5-1.3.9-1.7 1.6-.5 2.2-1.9 2.7-5.9.4-2.9.5-7.2.3-9.7-.3-4-.6-4.5-2.7-4.4-2.3.1-2.3 0-1.6-7.2.7-7.9.1-9.9-4.3-14.7-2.2-2.3-3.1-2.6-6.1-2.1-3 .6-3.3.5-2.7-1.1 1-2.6-1-3.5-7.6-3.5-4.9 0-6.2.4-9 2.9M330 66.3c0 .2-.9 1.2-2 2.2-2.4 2.1-2.7 1.4-.4-.9 1.5-1.5 2.4-2 2.4-1.3m-8.4 14.1c-.9 2.6-1.6 6.6-1.7 8.9s-.5 5.3-1 6.7c-.6 1.6-.7-.1-.3-5 .3-4.1 1.3-9.4 2.2-11.7 2.2-5.5 2.8-4.7.8 1.1m33.9 5.4c-1 4.7-5.6 8.5-13.1 11-8.4 2.7-13.2 5.5-14.4 8.5-.5 1.2-.9 1.6-.9.9-.1-2.3 2.7-6.7 5.1-8 1.2-.7 5-2.1 8.2-3.2 7.2-2.4 11.9-5.9 13.6-10 1.5-3.7 2.4-3.3 1.5.8m-112.1 18.4c1.4 3.8 2.3 6.8 2 6.8s-1-1.4-1.5-3c-.6-1.7-1.5-3-2-3-.4 0-.5-.7-.2-1.7.4-1.1.3-1.4-.5-.9s-1 .2-.6-.8-.1-1.8-1.1-2.2c-1.3-.5-1.4-.9-.4-1.5 1.7-1 1.3-1.6 4.3 6.3m34.4-5.5c-1.8.4-2.6 3.3-1 3.3.5 0 1.5 1.2 2.2 2.7.8 1.6 2.1 3.6 2.9 4.5.8 1 1 1.8.4 1.8-.5 0-1.8-1.6-2.9-3.5-1.7-3.2-2-3.4-3.1-1.8-1.1 1.4-1.3 1-1.3-3 0-4.2.2-4.7 2.3-4.6 1.6.1 1.8.2.5.6m40.6 2.7c.3 1.3 0 3.6-.8 5-1.3 2.5-1.3 2.4-1.2-2.8 0-5.6.9-6.5 2-2.2m160.8 4.8c-.7.7-1.2.8-1.2.2s.3-1.4.7-1.7c.3-.4.9-.5 1.2-.2.2.3-.1 1.1-.7 1.7m-190.9 4.5c-.7.2-2.1.2-3 0-1-.3-.4-.5 1.2-.5 1.7 0 2.4.2 1.8.5m186.2 5.3c.3.6-.1.7-.9.4-1.8-.7-2.1-1.4-.7-1.4.6 0 1.3.4 1.6 1M107 120.1c0 .6-.4.7-1 .4-.5-.3-1-1.1-1-1.6 0-.6.5-.7 1-.4.6.3 1 1.1 1 1.6m148.7-.5c-.3.3-1.2.4-1.9.1-.8-.3-.5-.6.6-.6 1.1-.1 1.7.2 1.3.5m-157 2.6c-.3.8-.6.5-.6-.6-.1-1.1.2-1.7.5-1.3.3.3.4 1.2.1 1.9m9.7 1.4c.3.8.2 1.2-.4.9s-1-1-1-1.6c0-1.4.7-1.1 1.4.7M464 125c0 .5-.2 1-.4 1-.3 0-.8-.5-1.1-1-.3-.6-.1-1 .4-1 .6 0 1.1.4 1.1 1m-361 3.4c0 .2-.7.7-1.6 1-.8.3-1.2.2-.9-.4.6-1 2.5-1.4 2.5-.6m356.4 3.1c-.4.8-.8 1.5-1 1.5s-.4-.7-.4-1.5.4-1.5 1-1.5c.5 0 .7.7.4 1.5m7.4 3.4c-.8 1.2-1.7 1.8-2.1 1.5-.5-.6 2.5-4.3 3.2-3.8.1.1-.3 1.2-1.1 2.3m-12.7 7.4c-1 .9-1.1.8-.5-.6.3-1 .9-1.5 1.2-1.2s0 1.1-.7 1.8m-335.8 5.2c.4.8.2 1.7-.3 2-.6.4-1-.3-1-1.4 0-2.5.6-2.7 1.3-.6m335.9 16.7c-.7.7-1.2.8-1.2.2s.3-1.4.7-1.7c.3-.4.9-.5 1.2-.2.2.3-.1 1.1-.7 1.7m-11.1 4.1c-1 .9-1.1.8-.5-.6.3-1 .9-1.5 1.2-1.2s0 1.1-.7 1.8m-324.2 1.1c.9 1.1.9 1.6 0 2.2-.8.4-.9.3-.5-.4s.2-1.2-.3-1.2c-.6 0-1.1-.5-1.1-1 0-1.4.5-1.3 1.9.4m327.2 12.9c-1 .9-1.1.8-.5-.6.3-1 .9-1.5 1.2-1.2s0 1.1-.7 1.8m-320.3 4.2c-.3.3-.9-.2-1.2-1.2-.6-1.4-.5-1.5.5-.6.7.7 1 1.5.7 1.8m7.6.5c-.6.6-1 .3-1-1s.4-1.6 1-1c.7.7.7 1.3 0 2m311.3-.8c-.3.8-.6.5-.6-.6-.1-1.1.2-1.7.5-1.3.3.3.4 1.2.1 1.9M435 191c0 .5-.2 1-.4 1-.3 0-.8-.5-1.1-1-.3-.6-.1-1 .4-1 .6 0 1.1.4 1.1 1m-293.2 13.5c-.3.3-.9-.2-1.2-1.2-.6-1.4-.5-1.5.5-.6.7.7 1 1.5.7 1.8m286.2 3.1c0 .8-.4 1.2-1 .9-.5-.3-1-1-1-1.6 0-.5.5-.9 1-.9.6 0 1 .7 1 1.6m7 1.2c0 .5-.7.9-1.5.9s-1.2-.4-.9-.9c.3-.4.9-.8 1.5-.8.5 0 .9.4.9.8m-296.3 7.7c0 .8-.4 1.2-.9.9s-.6-1-.3-1.5c.9-1.3 1.2-1.1 1.2.6m292.5 1.7c-.7.7-1.2.8-1.2.2s.3-1.4.7-1.7c.3-.4.9-.5 1.2-.2.2.3-.1 1.1-.7 1.7m-287.4 10.9c-.3.8-.7.3-1.1-1-.4-1.7-.3-2.1.5-1.3.5.5.8 1.6.6 2.3m276-.6c-.3.3-.9-.2-1.2-1.2-.6-1.4-.5-1.5.5-.6.7.7 1 1.5.7 1.8M233.7 243c.9 2.3 1.8 3 3.7 3 1.4 0 2.6.4 2.6.9 0 1.2-4.5 2.2-6.4 1.5-1.1-.4-1.8.4-2.4 2.8-.5 1.8-.7 3.6-.5 4s2.4 1 4.8 1.4c5.8.8 4.8 2.4-1.5 2.4-2.7 0-5.2.4-5.5 1-.9 1.5-2.5 1.2-2.5-.5 0-.8-.9-2.4-2-3.5-2.8-2.8-2.5-4.2.6-2.8 2.1 1 2.7.9 3.5-.3 1.5-2.3 1-5.5-1.1-7.4-2.7-2.5-2.5-3.8.6-3.2 1.6.3 2.8 0 3.1-.9.8-2.2 1.8-1.7 3 1.6m-76-.3c-.4.3.1 1.6 1 2.7 1.8 2.1 1.8 2.1-.4.2-2-1.6-2.3-3.6-.6-3.6.4 0 .3.3 0 .7M408 255c0 .5-.4 1-1 1-.5 0-1-.5-1-1 0-.6.5-1 1-1 .6 0 1 .4 1 1m11.7 3.6c-.3.3-1.2.4-1.9.1-.8-.3-.5-.6.6-.6 1.1-.1 1.7.2 1.3.5M140 262c0 .5-.5 1-1.1 1-.5 0-.7-.5-.4-1 .3-.6.8-1 1.1-1 .2 0 .4.4.4 1m264.5 0c.3.5.1 1-.4 1-.6 0-1.1-.5-1.1-1 0-.6.2-1 .4-1 .3 0 .8.4 1.1 1m-250.8 2.6c-.3.3-1.2.4-1.9.1-.8-.3-.5-.6.6-.6 1.1-.1 1.7.2 1.3.5m275 2c-.3.3-1.2.4-1.9.1-.8-.3-.5-.6.6-.6 1.1-.1 1.7.2 1.3.5m-299 2c-.3.3-1.2.4-1.9.1-.8-.3-.5-.6.6-.6 1.1-.1 1.7.2 1.3.5M455 270c0 .5-.8 1-1.7 1-1.5 0-1.6-.2-.3-1 1.9-1.2 2-1.2 2 0m-340.3.6c-.3.3-1.2.4-1.9.1-.8-.3-.5-.6.6-.6 1.1-.1 1.7.2 1.3.5m346.8.4c1.3.6 1.5.9.5.9-.8 0-2.2-.4-3-.9-1.8-1.2-.2-1.2 2.5 0m-354 1c-1.1.5-2.7.9-3.5.9-.9 0-.8-.4.5-.9 1.1-.5 2.7-.9 3.5-.9.9 0 .8.4-.5.9"/><path d="M312.4 148.7c.3 2.1.9 7.9 1.2 12.9.8 11.1-.6 17.7-4.9 23.6l-3 4.2 1.7 5.1c3.2 9.1 14.3 30.9 18.5 36.2 3.3 4.2 5.1 5.5 9 6.7 8.2 2.4 15.3-.3 27-10.4 6.3-5.5 11-8 14.8-8 .7 0 1.3.4 1.3 1 0 .5-1.5 1-3.3 1-2.5 0-4.8 1.3-10.1 5.7l-6.8 5.6 2.5 1.3c3.4 1.8 3.6 2.9 2.7 11.3-1.1 10.2-2.2 10.2-1.4 0 .6-8.3.6-8.5-1.8-10.1s-2.8-1.5-9.3 1.8c-3.7 1.9-7.9 3.4-9.3 3.4h-2.5l.7 7.6c.5 5.2.4 7.4-.4 6.9-.5-.3-1-3-1-6 0-7.2-.5-8.1-5.6-10.6-7.3-3.5-14.5-14.8-24.5-38.4-3.1-7.3-3.8-8.4-3.9-5.8 0 1.7 1.8 8.3 4 14.5 6.1 17.7 9 28.6 9 34.3 0 2.9.4 5.5.9 5.7 1.2.5 8.4 11.9 7.8 12.5-.3.2-2.3-2.3-4.5-5.7-4.5-7.1-4.1-7.3-8.8 4.2l-3.1 7.8 17.2 5.5c18.1 5.8 21.3 6.2 32.4 4.4l6.8-1.1.7-10.6c.3-5.8.6-13.6.6-17.5v-6.9l10.5.7c7.5.5 10.9.4 11.9-.4 2.1-1.7 3.1-14.7 1.7-21.2-.7-3-3.2-9.7-5.6-14.9s-6-15.1-8-21.8c-2-6.8-4.3-13.4-5.1-14.7-3.2-4.8-19.4-13.3-19.4-10.1 0 2.7 6.5 10 12.9 14.5 9.4 6.7 11.3 10.8 10.9 23.1-.2 5.2.1 11.2.6 13.3l.8 3.8-3.7-2.5c-4.4-3-7.1-3.2-17.8-1.1-10.4 2-13.3 1.9-15.6-.4-1.1-1.1-2.5-3.9-3.1-6.3s-3.3-10.1-6.1-17.1c-2.8-7.1-4.8-13.1-4.5-13.4s.8.3 1.2 1.3c3.2 9.3 6.4 13.3 6.4 8.1 0-6.8-6.5-21.2-14.1-31.5-3-3.9-4.6-5.2-6.5-5.2-2.5 0-2.6.2-2 3.7m39.8 97.2c-.3 2.2 0 3 1.5 3.4 1 .3-.7.5-3.7.4-3 0-4.3-.2-2.7-.4 3.5-.6 3.9-4.9.5-5.6-1.5-.3-1.1-.5 1.3-.6 3.4-.1 3.5 0 3.1 2.8m2.3 11.1c-.3.5-1.8 1-3.3.9l-2.7-.1 2.5-.8c3.5-1.1 4.2-1.1 3.5 0M263 269.5c-24.5 14.3-35.3 16.3-45.3 8.3-2.1-1.6-4-2.8-4.3-2.5-.9.9-2.1 10.8-1.6 13.4l.5 2.6 24-.6c13.2-.4 28.2-.7 33.4-.7h9.3v-14.5c0-8-.3-14.5-.7-14.5-.5 0-7.3 3.9-15.3 8.5"/><path d="M306.5 270c-1.6 1.8-6.7 14.1-7.9 19.1l-.6 2.6 26.3-.4c35.6-.5 44.7-1.1 45.4-3.1.5-1.3-1.2-10-2.1-10.9-.2-.2-4.7.4-10.1 1.2-5.4.9-11.2 1.3-12.9 1-2.6-.6-13.4-3.9-32.3-10-3.8-1.2-4.3-1.2-5.8.5M41 297.5c0 .9.7 1.8 1.5 2.1 1.3.5 1.5 3.5 1.5 18 0 14.6-.2 17.6-1.5 18-.8.4-1.5 1.2-1.5 2 0 1.1 2 1.4 9.5 1.4 9.2 0 11.5-.9 7.8-2.9-1.5-.7-1.7-2-1.5-6.5l.4-5.6h4.6c5 0 11.8-2.6 14-5.3 2.1-2.5 3.1-8.5 2.1-11.9-1-3.5-4.8-8-6-7.2-.5.3-.9.1-.9-.4 0-2-6.7-3.2-18.1-3.2-10 0-11.9.2-11.9 1.5m21.4 2.1c1.2 1.2 1.6 3.7 1.6 10.8 0 9.8-.7 11.6-4.7 11.6-2.3 0-2.3-.1-2.3-12 0-11.2.1-12 1.9-12 1.1 0 2.7.7 3.5 1.6M82.5 297c-.5.8-.1 1.6.9 2.2 1.4.8 1.6 3.2 1.6 18.4 0 15.1-.2 17.8-1.7 19.2-1.6 1.6-1.1 1.7 7.1 2 4.9.2 9.1 0 9.4-.3s0-1.5-.6-2.8c-.7-1.2-1-3.1-.8-4.2.3-1.1.5-4.2.5-6.8.1-4.7.2-4.8 2.9-4.5 2.6.3 2.7.5 3.2 8.3.3 4.4.9 8.6 1.3 9.2.5.8 3.2 1.3 7.2 1.3h6.5l-.5-2.8c-.2-1.5-.7-4.8-1-7.5-.4-2.6-1-4.5-1.6-4.2-.5.4-.9-.1-.9-1s-1.6-2.3-3.7-3.2l-3.8-1.5 4-2.1c2.2-1.1 4.5-2.7 5.2-3.6 1.4-1.8 1.7-9.1.4-9.1-.5 0-1.1-.9-1.4-1.9-1-4-6.3-5.5-20.3-5.9-9.7-.3-13.4-.1-13.9.8m20.6 2c1.6.9 1.9 2.2 1.9 9.1 0 7.6-.1 8-2.6 8.9-1.4.6-2.9.8-3.3.6-.9-.6-1.4-17.3-.6-18.6s2.2-1.3 4.6 0M123.5 296.9c-.3.6.4 1.5 1.5 2.1 1.9 1 2 2 2 18.5 0 16.4-.1 17.6-2 18.7-1.1.7-2 1.6-2 2 0 1 26.7 1 27.3 0 .2-.4.7-2.4 1.1-4.5.6-3.3.5-3.7-1.4-3.7-1.5 0-2.6 1.1-3.6 3.5-1.1 2.7-2 3.5-3.9 3.5-2.5 0-2.5 0-2.5-10 0-9.1.2-10 1.8-10 2.2 0 5.5 3.3 4.5 4.4-.5.5.1.7 1.2.4 1.6-.3 2.1-1.2 2.3-5.6.3-4.7.1-5.2-1.7-5.2-1.2 0-2.1.4-2.1.9 0 1.7-3 4-4.5 3.5-1.1-.5-1.5-2.5-1.5-8.3 0-4.3.3-8 .6-8.3 1.2-1.3 4.6.6 6 3.3.8 1.6 2.3 2.9 3.3 2.9 1.6 0 1.7-.4.8-4.5l-1-4.5h-12.8c-7 0-13 .4-13.4.9M156 297.4c0 .7.7 1.9 1.5 2.6 1.2 1 1.5 4.3 1.5 18s-.3 17-1.5 18c-2.6 2.2-1.6 3 3.5 3s6.1-.8 3.5-3c-1.2-1-1.5-3.8-1.5-12.8 0-7.3.4-11.2.9-10.7.6.6 2.3 4.4 3.8 8.5 3.9 10.2 5.5 10.1 9.6-.8 1.7-4.5 3.5-8.2 3.9-8.2s.8 2.9.8 6.4c0 4.2.4 6.6 1.3 6.9q1.5.6 0 .6c-.9.1-1.3 1.7-1.3 4.6 0 3-.5 4.7-1.4 5.1-.8.3-1.2 1.2-.9 2 .4 1 2.6 1.4 8.9 1.4 8.3 0 9.8-.6 6.9-3-1.2-1-1.5-4.4-1.5-18.5 0-14.4.2-17.4 1.5-17.9.8-.3 1.5-1.2 1.5-2.1 0-1.3-1.2-1.5-7.1-1.3l-7.2.3-3 8.3c-1.6 4.6-3.3 7.9-3.8 7.5-.4-.4-1.4-2.8-2.2-5.3-4.2-12.1-3-11-10.8-11-5.2 0-6.9.3-6.9 1.4M200 297.4c0 .8.9 1.8 2 2.1 1.9.6 2 1.5 2 18 0 16.4-.1 17.5-2 18.5-4 2.2-1.9 3 7.5 3 7.5 0 9.5-.3 9.5-1.4 0-.8-.7-1.6-1.5-2-1.2-.4-1.5-3.3-1.5-17 0-17.2.3-19.6 2.6-19.6.8 0 1.4-.7 1.4-1.5 0-1.2-1.8-1.5-10-1.5-8 0-10 .3-10 1.4M222 297.4c0 .8.7 1.6 1.5 2 1.3.4 1.5 3.3 1.5 17.5v16.9l3.1 2.6c2.6 2.2 4 2.6 9.7 2.6 5 0 7.3-.5 9.2-2 2.5-1.9 2.5-2.1 2.8-19.5.3-14.2.6-17.7 1.8-18.2.8-.3 1.4-1.1 1.4-1.9 0-1-1.4-1.4-5-1.4-5.1 0-6.1.8-3.5 3 1.2 1 1.5 4.3 1.5 17.5 0 14.5-.2 16.4-1.9 17.9-1.4 1.3-3.8 1.4-5.3.2-.1 0-.4-7.9-.7-17.3-.5-13.3-.3-17.4.7-17.8.6-.2 1.2-1.1 1.2-2 0-1.2-1.6-1.5-9-1.5-7 0-9 .3-9 1.4M257 297.4c0 .8.5 1.8 1 2.1.6.4 1 7.7 1 18.5s-.4 18.1-1 18.5c-2.3 1.4-.7 2.5 4 2.5 4.8 0 6.7-1.4 3.5-2.6-1.2-.5-1.5-2.8-1.4-12.8 0-13.4.2-13.4 5-.4 3 8.5 4.7 7.9 8.9-3.5l3.5-9.2.3 11.9c.2 9.5 0 12.2-1.3 13.6-.8.9-1.5 2-1.5 2.3 0 .4 4.3.7 9.5.7 5.9 0 9.5-.4 9.5-1s-.7-1.3-1.5-1.6c-1.3-.5-1.5-3.5-1.5-18.5s.2-18.1 1.5-18.5c.8-.4 1.5-1.2 1.5-2 0-1.1-1.7-1.4-6.9-1.4h-7l-2.5 5.3c-1.3 2.9-2.8 6.5-3.1 8-1.2 4.8-2.2 3.9-5.1-4.8l-2.8-8.5h-6.8c-5.3 0-6.8.3-6.8 1.4M319 297.4c0 .8.7 1.6 1.5 2 1.3.4 1.5 3.5 1.5 18.6 0 15.3-.2 18-1.5 18-.8 0-1.5.7-1.5 1.5 0 1.2 1.8 1.5 10 1.5 9.9 0 12.1-.8 8-3-1.8-.9-2-2.1-2-10v-9h2.6c1.7 0 2.8.6 3.1 2 .3 1.1 1.4 2 2.4 2 1.6 0 1.9-.8 1.9-5s-.3-5-1.9-5c-1 0-2.1.9-2.4 2-.3 1.4-1.4 2-3.1 2-2.6 0-2.6-.1-2.6-8 0-10 1.6-11.4 6.5-5.7 4.2 4.9 5.8 4.8 4.9-.1-.4-2-.9-4-1.1-4.5-.2-.4-6.2-.7-13.4-.7-10.4 0-12.9.3-12.9 1.4M350 297c0 .5.9 1.4 2 2 1.9 1 2 2.1 2 18.2 0 16.3-.1 17.3-2.2 19.5l-2.1 2.3h10.1c10.1 0 11.7-.6 8.7-3-1.2-1-1.5-4.3-1.5-17.9 0-17.2.6-22.4 2.1-19.9.7 1 .9.9.9-.5 0-1.5-1.1-1.7-10-1.7-5.8 0-10 .4-10 1M373.6 299.1c-1 5.3-.7 6.9 1.2 6.9 1.3 0 2.2-1.2 3.1-4 .9-2.9 1.7-4 3.1-4 2.2 0 2.1-1.3 2.1 22.4 0 11.1-.3 14.2-1.6 15.6-.8.9-1.5 2-1.5 2.3 0 .4 4.3.7 9.5.7s9.5-.3 9.5-.7c0-.3-.7-1.4-1.5-2.3-1.3-1.4-1.6-5.1-1.7-19.3-.1-9.7.1-17.9.4-18.3 1.1-1 2.8.6 4.3 4.2 1.9 4.5 4.5 4.6 4.5 0 0-6.7.3-6.6-16-6.6h-14.7zM409 297.4c0 .8.7 1.6 1.5 2 1.3.4 1.5 3.4 1.5 17.9 0 14.3-.3 17.7-1.5 18.7-2.7 2.2-1.6 3 4 3s6.7-.8 4-3c-1.2-1-1.5-3.6-1.5-11.4l.1-10.1 2.4 2.9c1.3 1.6 2.9 4.1 3.7 5.5.7 1.4 3 5.6 5.1 9.3 3.4 6 4.2 6.8 6.8 6.8h2.9v-17.8c0-9.8-.3-18.2-.8-18.8-.4-.5-.6-.8-.3-.7.4.3 4.1-4.3 4.1-5.1 0-.3-2.5-.6-5.5-.6-4 0-5.5.4-5.5 1.4 0 .8.7 1.6 1.5 2 1.2.4 1.5 2.4 1.5 9.3-.1 8.1-.2 8.6-1.6 6.8-1.7-2.3-8-12.6-10.1-16.8-1.3-2.4-2-2.7-6.9-2.7-3.9 0-5.4.4-5.4 1.4M444 297.4c0 .8.7 1.6 1.5 2 1.3.4 1.5 3.5 1.5 18.5s-.2 18-1.5 18.5c-.8.3-1.5 1-1.5 1.6s4.9 1 13.4 1h13.4l.6-3.1c1.1-5.5.9-6.4-1.1-4.8-1.1 1-1.4 1-.9.1.4-.6.3-1.2-.2-1.2s-1.4 1.1-2 2.5c-.9 1.9-.9 2.5.1 2.6 1.9.1-2.6 1.8-5 1.8-2.2.1-2.3-.2-2.3-9.9 0-8 .3-10 1.4-10 2.5 0 4.6 1.2 4.6 2.6 0 .8.9 1.4 2 1.4 1.7 0 2-.7 2-5 0-4.2-.3-5-1.9-5-1 0-2.1.9-2.4 2-.3 1.4-1.4 2-3.1 2-2.6 0-2.6-.1-2.6-7.9 0-4.4.4-8.2.9-8.5 1.6-1 4.1.5 5.6 3.5 1.6 3 5.9 3.8 5 .9-.2-.8-.7-2.7-1.1-4.3l-.6-2.7h-12.9c-10.4 0-12.9.3-12.9 1.4M479 298.3c-2.6 2.8-3.4 5.8-2.6 10.2.5 2.2 1.3 3.5 2.3 3.5s1.3.6.9 1.6c-.4 1.1 1.3 4 5.2 8.8 7 8.4 8.4 10.9 7.6 13.1-1.2 3-5.6 1.4-8.7-3.3-1.7-2.5-3.6-4.2-4.8-4.2-2.2 0-2.2-.4-.8 5.8l1 4.9 8.3.2c7.8.1 8.4 0 10.8-2.6 2-2.1 2.6-3.9 2.6-7.2.1-5.4-.4-6.3-8.4-17.2-7-9.4-8.3-13.2-4.7-13.7 1.6-.2 2.9.7 4.9 3.7 1.8 2.8 3.4 4.1 4.9 4.1 2.1 0 2.2-.3 1.4-4.3-.4-2.3-.8-4.4-.9-4.7 0-.3-3.8-.7-8.5-.8-7.6-.1-8.7.1-10.5 2.1M507.4 298.5c-1.9 1.9-2.4 3.5-2.4 7.2 0 5.3 1.8 8.6 9.5 17.8 5.7 6.7 7.7 10.9 6.2 12.4-2.5 2.5-7.1 0-9.4-5.2-1.6-3.5-5.9-4-4.9-.5.4 1.3.8 3.6.9 5.3l.2 3 8.3.3c4.5.1 8.2-.2 8.2-.7s.9-1.1 2-1.4c2.6-.7 4.3-5.3 3.6-10-.7-4.1-2.8-7.6-10.6-17.7-2.7-3.6-5-7.5-5-8.8 0-3.5 3.4-2.7 7.2 1.6 1.8 2.2 4.2 4.1 5.3 4.4 1.9.5 2 .2 1.1-4.6l-1-5.2-8.3-.2c-7.7-.1-8.6.1-10.9 2.3M176 346c-12.9.4-37.1 1.1-53.7 1.5-22.7.6-30.3 1.1-30.3 2s4.6 1.4 16.8 1.9c13 .5 94.3 3.5 97.4 3.6.4 0 1 .9 1.3 2 .4 1.1 7.9 17 16.7 35.3 8.8 18.2 20.6 42.9 26.3 54.7s14.6 30.5 20 41.5c5.3 11 10.6 22.2 11.7 24.8 1.2 2.6 2.4 4.4 2.8 4s13.2-26.9 28.5-58.8 31.8-66.3 36.8-76.5c4.9-10.2 9.7-20.4 10.8-22.8 1-2.3 2-4.2 2.1-4.2.5-.1 72-2.8 94.1-3.6 15.5-.6 19.7-1 19.7-2.1 0-1-1.8-1.3-7.2-1.3-4 0-20.8-.4-37.3-1-16.5-.5-41.8-1.2-56.2-1.6l-26.2-.6-1.2 4.3c-1 3.7-12.4 28.5-41.9 91.4-2.1 4.4-7.7 16.3-12.5 26.5-4.7 10.2-9 18.9-9.4 19.3s-2.3-2.5-4.1-6.5c-1.9-4-7.1-15.1-11.7-24.7-4.6-9.5-8.3-17.5-8.3-17.6 0-.2-2.7-6.1-6.1-13.2-21.7-45.7-33.7-72.3-34.3-75.6l-.7-3.7-10.2.2c-5.6.1-20.8.4-33.7.8m33.8 2.7c-1 .2-2.8.2-4 0-1.3-.2-.5-.4 1.7-.4 2.2-.1 3.2.1 2.3.4m164.5 0c-.7.2-2.1.2-3 0-1-.3-.4-.5 1.2-.5 1.7 0 2.4.2 1.8.5m19.9 1.2c-1.2.7-6.2.4-6.2-.5 0-.2 1.7-.4 3.8-.4 2.3 0 3.2.3 2.4.9m-172.8 9.7c.3.8.2 1.2-.4.9s-1-1-1-1.6c0-1.4.7-1.1 1.4.7m124.7 6.7c-1 .9-1.1.8-.5-.6.3-1 .9-1.5 1.2-1.2s0 1.1-.7 1.8m-10.8 23.2c-.3.9-.8 1.4-1 1.1-.3-.3-.2-.9.2-1.5.9-1.6 1.5-1.3.8.4m-101.9 12.1c.3.8.2 1.2-.4.9s-1-1-1-1.6c0-1.4.7-1.1 1.4.7m86.3 21.9c0 .8-.4 1.2-.9.9s-.6-1-.3-1.5c.9-1.3 1.2-1.1 1.2.6m4.3 5.4c0 .6-.4 1.3-1 1.6-.5.3-1-.1-1-.9 0-.9.5-1.6 1-1.6.6 0 1 .4 1 .9m-8 3.5c0 .2-.7.9-1.5 1.6-1.3 1.1-1.4 1-.9-.4s2.4-2.3 2.4-1.2m-61 13.2c0 .8-.5 1.2-1 .9-.6-.4-.8-1.1-.5-1.6.9-1.4 1.5-1.1 1.5.7m58.8 4.4c-.7 1-1.4 1.7-1.7 1.5-.4-.4 1.8-3.5 2.5-3.5.2 0-.1.9-.8 2m-3.5 6.6c-.7.3-.9 1.3-.6 2.2.4 1.4.3 1.4-.5.2-1.2-1.6-.7-3 1.1-2.9.9 0 .9.2 0 .5m-7.7 3.4c0 1.2-.7 2.5-1.5 2.9-.7.5-1.3 2-1.3 3.5 0 1.4-.4 2.6-.9 2.6-1.3 0 .1-5.4 1.7-6.6.8-.7 1.4-1.6 1.3-2-.2-1.2 0-2.4.5-2.4.2 0 .3.9.2 2m-5.3 22.5c.4.8.3 1.6-.1 1.9s-.9-.4-.9-1.5c-.2-2.3.3-2.5 1-.4m-18.3-.1c0 .3-.4.8-1 1.1-.5.3-1 .1-1-.4 0-.6.5-1.1 1-1.1.6 0 1 .2 1 .4m12.7 2.8c-.3.8-.6.5-.6-.6-.1-1.1.2-1.7.5-1.3.3.3.4 1.2.1 1.9m.3 11.2c0 .3-.4.8-1 1.1-.5.3-1 .1-1-.4 0-.6.5-1.1 1-1.1.6 0 1 .2 1 .4m-6.4 12.4c-1.7 1.6-1.8 1.6-.5-.5.7-1.2 1.5-2 1.8-1.7.3.2-.3 1.2-1.3 2.2"/></svg>